<?xml version="1.0" encoding="UTF-8"?>
<svg id="b" data-name="Layer 2" xmlns="http://www.w3.org/2000/svg" xmlns:xlink="http://www.w3.org/1999/xlink" viewBox="0 0 640 640">
  <defs>
    <linearGradient id="d" x1="32.65" y1="846.35" x2="33.65" y2="845.35" gradientTransform="translate(-20895 541663.4056) scale(640 -640)" gradientUnits="userSpaceOnUse">
      <stop offset="0" stop-color="#4f2dff"/>
      <stop offset="1" stop-color="#3ec8ff"/>
    </linearGradient>
    <filter id="e" data-name="drop-shadow-1" x="130.8" y="117.98" width="415" height="437" filterUnits="userSpaceOnUse">
      <feOffset dx="7" dy="7"/>
      <feGaussianBlur result="f" stdDeviation="5"/>
      <feFlood flood-color="#000" flood-opacity=".4"/>
      <feComposite in2="f" operator="in"/>
      <feComposite in="SourceGraphic"/>
    </filter>
    <filter id="g" data-name="drop-shadow-2" x="217.8" y="210.98" width="246" height="65" filterUnits="userSpaceOnUse">
      <feOffset dx="7" dy="7"/>
      <feGaussianBlur result="h" stdDeviation="5"/>
      <feFlood flood-color="#000" flood-opacity=".4"/>
      <feComposite in2="h" operator="in"/>
      <feComposite in="SourceGraphic"/>
    </filter>
    <filter id="i" data-name="drop-shadow-3" x="225" y="273.27" width="197" height="65" filterUnits="userSpaceOnUse">
      <feOffset dx="7" dy="7"/>
      <feGaussianBlur result="j" stdDeviation="5"/>
      <feFlood flood-color="#000" flood-opacity=".4"/>
      <feComposite in2="j" operator="in"/>
      <feComposite in="SourceGraphic"/>
    </filter>
    <filter id="k" data-name="drop-shadow-4" x="250" y="39.27" width="174" height="131" filterUnits="userSpaceOnUse">
      <feOffset dx="7" dy="7"/>
      <feGaussianBlur result="l" stdDeviation="5"/>
      <feFlood flood-color="#000" flood-opacity=".4"/>
      <feComposite in2="l" operator="in"/>
      <feComposite in="SourceGraphic"/>
    </filter>
    <linearGradient id="m" x1="24.02" y1="853.02" x2="25" y2="852.05" gradientTransform="translate(-259 20531.9828) scale(24 -24)" xlink:href="#d"/>
  </defs>
  <g id="c" data-name="Layer 1">
    <rect width="640" height="640" rx="120" ry="120" fill="url(#d)"/>
    <g>
      <g filter="url(#e)">
        <path d="M225.8,142.98h208c38.66,0,70,31.34,70,70l-.03-3.14c21.08,163.89-97.09,159.66-270.82,157.14l-5.03,116.84c-1.39,32.35-43.74,44.06-61.17,16.77-6.93-10.86-10.95-23.77-10.95-37.61v-250c0-38.66,31.34-70,70-70Z" fill="none" stroke="#fff" stroke-linecap="round" stroke-linejoin="round" stroke-width="34"/>
      </g>
      <g filter="url(#g)">
        <path d="M243.32,236.02h181.39" fill="none" stroke="#fff" stroke-linecap="round" stroke-linejoin="round" stroke-width="34"/>
      </g>
      <g filter="url(#i)">
        <path d="M250.37,298.71h132.48" fill="none" stroke="#fff" stroke-linecap="round" stroke-linejoin="round" stroke-width="34"/>
      </g>
      <g filter="url(#k)">
        <path d="M330.78,48.39c28.29,5.12,24.07,26.3,54.29,36.66,14.22,5.27,16.73,17.75,16.43,32.75-.04,8.23.18,8.48-.71,10.72-3.99,10.96-11.75,14.87-18.53,16.61-7.6,3.16-19.25,2.06-31.96,1.94-27.56-.26-60.07-.19-66.87-.65-14.94-.61-24.9-18.77-25.07-30.96-.45-1.2-.36-5.26.13-7.46.47-2.75.42-7.82,1.54-11.04,2.56-7.64,8.09-11.48,17.57-14.11,22.32-5.03,27.25-37.9,53.17-34.46Z" fill="#fff"/>
      </g>
      <path d="M328.8,59.14c6.63,0,12,5.37,12,12s-5.37,12-12,12-10-5.37-10-12,3.37-12,10-12Z" fill="url(#m)"/>
    </g>
  </g>
</svg>